<svg xmlns="http://www.w3.org/2000/svg" width="300" height="271" viewBox="-58 -30 300 271">
  <title>Deep Onion</title>
  <defs>
    <linearGradient id="a" x1="-1840.7" x2="-1840.7" y1="-5139.5" y2="-3405.9" gradientTransform="matrix(.072 0 0 -.072 158 -239)" gradientUnits="userSpaceOnUse">
      <stop offset="0" stop-color="#D9B225"/>
      <stop offset="1" stop-color="#FFFF96"/>
    </linearGradient>
    <linearGradient id="b" x1="-1841.1" x2="-1841.1" y1="-4012.9" y2="-4243.2" gradientTransform="matrix(.072 0 0 -.072 158 -239)" gradientUnits="userSpaceOnUse">
      <stop offset="0" stop-color="#B5892A"/>
      <stop offset="1" stop-color="#FEFEFE"/>
    </linearGradient>
    <linearGradient id="c" x1="-1840.1" x2="-1840.1" y1="-5174.7" y2="-3398.5" gradientTransform="matrix(.072 0 0 -.072 158 -239)" gradientUnits="userSpaceOnUse">
      <stop offset="0" stop-color="#FFFF96"/>
      <stop offset="1" stop-color="#DBAD09"/>
    </linearGradient>
  </defs>
  <path fill="url(#a)" d="M87 48C71 31 46 8 43-4s4-22 4-22c-11 0-18 5-21 12-4-7-10-12-22-12 0 0 7 10 5 22C6 8-19 31-35 48a66 66 0 0 0-13 75c31 55 118 52 148 0 11-23 9-51-13-75zM26 149c-27 0-58-15-65-44-8-34 26-55 46-76 2 2 6 5 8 9l-4 4c-16 16-45 34-39 60l4 10s16 24 50 24 49-24 49-24l4-10c6-26-22-44-39-60L17 18l9-10 9 12c24 25 64 48 55 85-7 29-37 44-64 44zm20-66-4-5 8-9c12 13 24 28 6 43-8 7-19 10-30 10s-23-3-31-10c-18-15-6-30 6-43l9 9-5 5c-5 7-5 12-2 17 11 12 36 11 46 0 3-5 3-10-3-17zM36 94c-6 3-15 3-20-1l4-23c-3-2-6-6-6-10 0-7 5-12 12-12 6 0 11 5 11 12 0 4-2 8-6 10l5 23z" transform="translate(66 -3)"/>
  <path fill="#b5892a" d="M102 75h6l8-9v-5l-14 14zm-35-9v-5l14 14h-6Zm6-45v5l3 3 5 5h5c-4-5-7-9-13-13Zm5-6h5l9-10v-6L78 15Z"/>
  <path fill="#fff" d="M113-30c-11 0-18 6-21 12-4-6-11-12-22-12l6 5c9 2 12 8 16 15 3-7 6-13 15-15l6-5z"/>
  <path fill="url(#b)" d="m20 70-4 2c-3-3-6-7-6-12 0-8 7-16 16-16 8 0 15 7 15 16 1 4-2 9-6 12l-4-2c4-2 6-6 6-10 0-7-5-12-11-12-7 0-12 5-12 12 0 4 3 8 6 10z" transform="translate(66 -3)"/>
  <path fill="#fff" d="m78 92 4-2c5 3 13 4 19 0l4 2c-9 7-20 6-27 0z"/>
  <path fill="#a87925" d="M72 95c7 10 32 10 39 0l3 1c-4 6-14 10-23 10-8 0-18-4-23-10l4-1z"/>
  <path fill="#fff" d="m55 102 6 7c8 6 19 9 30 9 12 0 23-3 31-9l6-7 3 2c-1 3-4 5-7 8-8 7-21 10-33 10-11 0-24-3-32-10-3-2-6-5-7-8l3-2z"/>
  <path fill="#a87925" d="M45 107c9 15 29 23 47 23 17 0 37-8 46-23l3 1c-9 17-31 26-49 26-19 0-41-9-50-26l3-1z"/>
  <path fill="#fff" d="M31 113c11 22 37 33 61 33 23 0 49-11 60-33l4 2c-12 23-39 34-64 34-26 0-53-11-65-34Z"/>
  <path fill="#a87925" d="M18 119c12 24 39 42 74 42 34 0 61-18 73-42l-3-1c-5 10-12 18-21 24a85 85 0 0 1-49 15c-18 0-35-5-50-15-9-6-16-14-21-24l-3 1z"/>
  <path fill="url(#c)" d="M41-22c-9 2-12 8-15 15-4-7-7-13-16-15 3 6 4 12 2 19-1 6-7 13-10 17l-19 20-16 17c-7 8-13 18-16 29-3 10-3 20 0 30 4 14 13 27 25 36a89 89 0 0 0 99 0c12-9 22-22 26-36 2-10 2-20 0-30-3-11-9-21-17-29L69 34 50 14c-4-4-9-11-11-17-1-7 0-13 2-19zM20 38-6 62c-7 7-15 16-18 26v14c5 21 29 31 50 31 20 0 45-10 50-31 1-5 1-10-1-14-4-18-25-32-37-44L12 19 26 2c7 13 23 26 34 36 13 12 28 27 33 44 2 8 3 16 1 24-7 31-39 47-68 47-30 0-61-16-68-47-2-9-2-18 1-27 8-22 32-38 48-55l13 13zm23 47-6-7 13-14 3 3 3 3c6 7 12 15 13 24 0 9-4 16-11 21-8 8-21 10-32 10-12 0-24-2-33-10-6-5-11-12-10-21 0-10 9-20 16-27l2-3 14 14-7 7c-3 3-5 7-3 11 5 13 37 13 42 0 1-4-1-8-4-11zM16 72a15 15 0 1 1 19 0l5 23c-10 6-18 6-28 0l4-23z" transform="translate(66 -3)"/>
  <path d="M220 230h-9v-23c0-9 7-11 15-11 9 0 16 2 16 11v23h-9v-22l-1-3c-1-2-4-2-6-2-1 0-5 0-6 2v25zm-29-34c4 0 9 0 12 3 4 3 4 8 4 13v3c0 5 0 10-4 13-3 3-8 3-12 3s-9 0-12-3-4-8-4-13v-3c0-5 1-10 4-13s8-3 12-3zm7 19v-8l-1-3-6-1-5 1-2 3v14l2 2 5 1 6-1 1-2v-6zm-35 15v-33h8v33h-8zm9-42c0 4-2 5-5 5-4 0-5-1-5-5 0-3 1-5 5-5 3 0 5 2 5 5zm-36 42h-9v-23c0-9 7-11 15-11 9 0 15 2 15 11v23h-8v-22l-1-3c-1-2-4-2-6-2-1 0-5 0-6 2v25zm-33 2c-6 0-12-1-16-6-3-4-4-10-4-16v-5c0-5 1-12 4-16 4-5 10-5 16-5s12 0 16 5c3 4 4 11 4 16v5c0 6-1 12-4 16-4 5-10 6-16 6zm0-8c2 0 6 0 8-2l2-4 1-8v-5l-1-8-2-4c-2-2-6-2-8-2-3 0-6 0-8 2-2 1-2 2-2 4l-1 8v5l1 8c0 2 0 3 2 4 2 2 5 2 8 2zm-161 6v-45h16c6 0 12 1 16 5s4 10 4 15v5c0 5 0 11-4 15-4 5-10 5-16 5h-16Zm8-37v30h8l9-2 2-4 1-7v-5l-1-7-2-4-9-1h-8zm107 37v11h-9v-29c0-5 1-10 4-13s8-3 12-3 8 0 11 3c4 3 4 9 4 13v3c0 4 0 9-3 13-3 3-8 3-12 3l-7-1zm7-6 5-1 1-3 1-5v-3l-1-5-1-3-5-1-6 1-1 3v9l1 7 6 1zm-41-7 1 5 5 1h13l-2 7-7 1h-4c-4 0-9-1-12-5-3-3-3-7-3-11v-3c0-4 0-9 3-12 3-4 8-4 12-4 9 0 15 3 15 12v1c0 2 0 6-2 7l-4 1H23Zm0-7h13v-1l-1-5-6-1-5 1-1 2v4zm-32 7 1 5 5 1h13l-1 7H8l-7 1h-4c-4 0-9-1-12-5-2-3-3-7-3-11v-3c0-4 1-9 3-12 3-4 8-4 13-4 8 0 14 3 14 12v1c0 2 0 6-2 7l-3 1H-9zm0-7H4v-1l-1-5-6-1-5 1-1 2v4z"/>
</svg>
