<svg xmlns="http://www.w3.org/2000/svg" viewBox="-58.431 -29.743 890.287 196.649" enable-background="new -58.431 -29.743 890.287 196.649"><g><g><g><linearGradient id="a" x1="-1840.701" x2="-1840.701" y1="-5139.546" y2="-3405.879" gradientUnits="userSpaceOnUse" gradientTransform="matrix(.072 0 0 -.072 158.253 -239.361)"><stop offset="0" stop-color="#D9B225"/><stop offset="1" stop-color="#FFFF96"/></linearGradient><path fill="url(#a)" d="M86.86 48.37C70.5 30.6 45.53 7.55 42.8-4.03c-2.67-11.6 4.53-22.26 4.53-22.26-11.38-.2-17.86 5.55-21.6 12.1-3.67-6.55-10.22-12.3-21.6-12.1 0 0 7.2 10.67 4.53 22.26-2.66 11.6-27.7 34.63-44 52.4-22.02 24.13-24.1 52.07-12.8 74.46h.07c30.96 55 118.36 51.7 147.6 0 11.37-22.4 9.28-50.33-12.67-74.45zM25.73 149.03c-27 0-57.74-14.55-64.58-43.85-7.7-34.27 25.77-55.3 45.64-75.9 2.37 1.67 5.97 5.12 8.42 8.3-1.44 1.43-2.88 2.8-4.18 4.1-16.4 15.98-44.85 34.34-38.66 60.7.8 3.37 2 6.47 3.6 9.35 0 0 16.13 24.05 49.97 24.12 33.83.07 49.53-24.05 49.53-24.05 1.58-2.88 2.8-6.05 3.6-9.43 6.2-26.35-22.25-44.7-38.74-60.7-7.7-7.63-15.48-15.4-23.18-23.18 2.45-3.53 6.55-7.5 8.57-10.3 2.1 3.1 7.05 9 9.36 11.45 24.04 25.4 63.78 48.74 55.2 85.53-6.83 29.3-37.5 43.85-64.57 43.85zm20.52-66.17c-1.37-1.73-2.88-3.17-4.47-4.68l8.36-8.7c12.1 12.3 23.54 27.7 5.83 42.83-7.7 6.56-19.3 9.5-30.4 9.5-11.07 0-22.6-2.94-30.3-9.5-17.78-15.2-6.12-30.66 6.05-43.05l8.28 8.8c-1.44 1.28-2.88 2.72-4.6 4.8-5.4 6.7-5.34 12.4-2.38 16.7 10.94 12.04 36.14 11.68 46-.06 2.96-4.33 3.03-9.94-2.37-16.64zM35.6 93.52c-6.06 3.52-14.12 3.24-19.66-.08l4.1-23.47c-3.53-1.87-5.98-5.7-5.98-10.08 0-6.42 5.26-11.67 11.67-11.67 6.48 0 11.6 5.25 11.6 11.66 0 4.38-2.3 8.2-5.9 10.07l4.16 23.55z"/><path fill="#B5892A" d="M36.53 78.32l5.25-.14 8.36-8.7c0-1.74 0-3.47 0-5.2-5.2 4.4-9.08 8.28-13.6 14.04zM1.32 69.25l.07-5.18 13.53 14.18-5.33-.2zM6.72 24.18l.07 5.1c1.07 1.1 2.15 2.17 3.16 3.25 1.73 1.66 3.46 3.4 5.26 5.04l5.18-.07c-4.46-5.04-7.4-8.86-13.68-13.32zM12.2 18.57l4.96-.08c2.1-2.17 7.35-7.78 8.57-10.3V2C21.05 7.63 16.5 12.23 12.2 18.57z"/><path fill="#fff" d="M47.33-26.3c-11.38-.2-17.86 5.55-21.6 12.1-3.75-6.55-10.22-12.3-21.6-12.1l6.2 4.26c8.7 2.1 12.3 8.13 15.4 15.12 3.1-7 6.77-13.03 15.4-15.12l6.2-4.25z"/><linearGradient id="b" x1="-1841.114" x2="-1841.114" y1="-4012.925" y2="-4243.245" gradientUnits="userSpaceOnUse" gradientTransform="matrix(.072 0 0 -.072 158.253 -239.361)"><stop offset="0" stop-color="#B5892A"/><stop offset="1" stop-color="#FEFEFE"/></linearGradient><path fill="url(#b)" d="M20.04 69.97l-3.96 1.73c-3.53-2.88-6.2-6.9-6.2-11.52 0-8.42 7.28-16.13 15.7-16.13 8.43 0 15.92 7.42 15.92 15.84 0 4.6-2.6 9-6.12 11.8l-3.96-1.73c3.6-1.87 5.9-5.7 5.9-10.08 0-6.42-5.1-11.67-11.6-11.67-6.4 0-11.66 5.25-11.66 11.66 0 4.38 2.45 8.2 5.98 10.07z"/><path fill="none" d="M35.6 93.52"/><path fill="#fff" d="M11.98 95.24l3.96-1.8c5.54 3.3 13.6 3.6 19.65.07l3.95 1.9c-9.2 6.75-20.44 6.32-27.57-.16z"/><path fill="#A87925" d="M5.86 98.05c7.13 10 32.47 9.94 39.52-.07l3.24 1.5c-4.17 6.28-14.47 9.8-23.04 9.8-8.56 0-18.7-3.52-22.96-9.72l3.24-1.5z"/><path fill="#fff" d="M-10.7 105.68c1.44 2.16 3.38 4.4 5.97 6.63 7.7 6.56 19.23 9.5 30.3 9.5 11.1 0 22.7-2.94 30.4-9.5 2.6-2.22 4.6-4.46 6.04-6.7l3.62 1.74c-1.8 2.88-4.25 5.54-7 7.92-8.7 7.4-21.73 10.5-33.04 10.5-11.3 0-24.12-2.94-32.9-10.36-2.66-2.3-5.1-5.18-6.9-8.13l3.52-1.6z"/><path fill="#A87925" d="M-20.7 110.22c8.7 15.7 29.15 23.25 46.43 23.25s37.73-7.56 46.44-23.18l3.3 1.5c-9.42 17.14-31.3 25.27-49.74 25.27-18.43 0-40.4-8.13-49.75-25.34l3.3-1.5z"/><path fill="#fff" d="M-34.68 116.63c11.23 21.67 37.23 32.4 60.4 32.4 23.26 0 49.18-10.73 60.34-32.4l3.6 1.65C78 140.96 50.93 152.9 25.73 152.9c-25.13 0-52.56-11.94-64.15-34.55l3.74-1.72z"/><path fill="#A87925" d="M-48.07 122.82c12.02 23.83 39.24 41.4 73.8 41.4s61.77-17.57 73.8-41.4l-3.24-1.5c-4.9 9.63-12.32 17.98-21.25 24.32-14.4 10.23-31.75 14.98-49.32 14.98-17.5 0-34.85-4.75-49.25-14.98-8.93-6.33-16.4-14.6-21.3-24.33l-3.25 1.52z"/><linearGradient id="c" x1="-1840.114" x2="-1840.114" y1="-5174.689" y2="-3398.534" gradientUnits="userSpaceOnUse" gradientTransform="matrix(.072 0 0 -.072 158.253 -239.361)"><stop offset="0" stop-color="#FFFF96"/><stop offset="1" stop-color="#DBAD09"/></linearGradient><path fill="url(#c)" d="M41.14-22.04c-8.72 2.1-12.32 8.2-15.4 15.2-3.25-6.78-6.63-13.12-15.42-15.2 2.3 5.9 3.3 12.53 1.87 18.8C10.8 2.57 5.34 9.55 1.6 14.1c-5.82 7-12.23 13.6-18.5 20.16-5.32 5.47-10.65 10.94-15.76 16.56-7.78 8.5-13.83 18.43-16.7 29.6-2.53 9.7-2.53 19.65.07 29.3 3.97 14.68 13.47 27.2 25.78 35.92 14.4 10.23 31.75 14.98 49.25 14.98 17.57 0 34.92-4.75 49.32-14.98 12.3-8.78 21.8-21.3 25.77-36.07 2.6-9.65 2.6-19.58.07-29.23-2.96-11.16-8.93-21.1-16.7-29.52-5.12-5.62-10.45-11.02-15.7-16.5-6.34-6.54-12.75-13.16-18.58-20.22-3.82-4.54-9.3-11.45-10.66-17.35-1.44-6.26-.5-12.9 1.88-18.8zM20.4 37.5C11.83 46.07 2.83 53.63-5.88 61.98c-7.34 6.98-15.26 15.7-18 25.63-1.22 4.62-1.3 9.3-.2 13.98 5.03 21.53 29.58 31.9 49.8 31.9 20.24 0 44.8-10.37 49.83-31.9 1.15-4.68 1.08-9.36-.2-13.97-4.77-17.13-25.2-31.3-37.52-43.33-8.65-8.5-17.14-17.14-25.64-25.7C17 13.36 22.26 8.2 25.72 2c7.5 13.04 22.9 25.78 34.13 36.07 13.17 12.03 28.22 26.43 33.33 44 2.3 7.92 2.5 15.9.64 23.9-7.13 30.6-38.74 46.66-68.1 46.66-29.3 0-61.06-16.06-68.12-46.66-2.1-9.07-1.58-18 1.66-26.78 8-21.76 31.53-38.53 47.44-55.02 4.54 4.54 9 8.93 13.68 13.32zm23.04 47.66c-2.1-2.66-4.4-4.6-6.9-6.84l13.6-14.04 2.6 2.67c1 1.08 2.08 2.16 3.08 3.3 6.05 6.5 12.32 14.84 12.82 24.06.5 8.5-4.03 15.4-10.37 20.74-8.7 7.5-21.38 10.37-32.7 10.37-11.3 0-23.9-2.87-32.6-10.36C-13.3 109.7-17.9 102.8-17.4 94.3c.58-10.65 9-20.3 16.13-27.57l2.66-2.66 13.53 14.18c-2.74 2.3-4.83 4.03-7.13 6.9-2.38 2.9-4.6 6.78-3.17 10.6 4.9 13.1 37.08 13.03 41.98-.08 1.45-3.74-.78-7.63-3.16-10.5zM16.08 71.7c-3.53-2.88-5.6-7.2-5.6-11.8-.02-8.43 6.82-15.27 15.25-15.27s15.2 6.84 15.2 15.26c0 4.6-2.03 9-5.55 11.8l4.17 23.7c-9.93 5.82-17.64 5.82-27.57-.16l4.1-23.54z"/></g></g><path fill="#fff" d="M777.7 130.5h-19.62V76.6c0-21.6 16.02-26.2 34.76-26.2s34.75 4.6 34.75 26.2v53.93H808V79.54c0-2.44 0-6.25-1.37-8.4-2.3-3.6-10.13-3.66-13.8-3.66s-11.48.07-13.78 3.66c-1.36 2.15-1.36 5.96-1.36 8.4v50.98zm-66-80.13c9.26 0 20.17 1 27.28 7.47 8.04 7.33 9.2 19.68 9.2 29.88v7.75c0 10.2-1.15 22.55-9.2 29.87-7.1 6.53-18.02 7.47-27.28 7.47-9.2 0-20.18-.93-27.3-7.46-8.03-7.32-9.18-19.67-9.18-29.87v-7.75c0-10.2 1.15-22.55 9.2-29.88 7.1-6.46 18.1-7.47 27.28-7.47zm16.58 45.1V87.7c0-3.86-.07-8.4-.86-12.2-.43-2-1.15-4.16-2.73-5.6-2.95-2.58-9.34-2.58-13-2.58-3.6 0-10.06 0-12.93 2.6-1.58 1.42-2.3 3.58-2.73 5.6-.8 3.8-.86 8.32-.86 12.2v7.75c0 3.95.07 8.4.86 12.2.43 2.02 1.15 4.24 2.73 5.6 2.87 2.6 9.34 2.6 12.93 2.6 3.66 0 10.05 0 13-2.6 1.57-1.36 2.3-3.58 2.72-5.6.8-3.8.86-8.25.86-12.2zM645.7 130.5V52.68h19.6v77.84h-19.6zm21.48-97.07c0 7.97-3.74 11.7-11.7 11.7s-11.78-3.73-11.78-11.7c0-7.97 3.8-11.7 11.77-11.7s11.7 3.73 11.7 11.7zm-83 97.08h-19.6V76.6c-.02-21.6 16-26.2 34.74-26.2 18.74 0 34.75 4.6 34.75 26.2v53.93h-19.6V79.54c0-2.44 0-6.25-1.36-8.4-2.3-3.6-10.12-3.66-13.78-3.66s-11.5.07-13.8 3.66c-1.35 2.15-1.35 5.96-1.35 8.4v50.98zm-75.62 2.6c-12.7 0-27.65-1.87-36.4-12.2-8.2-9.7-9.13-24.64-9.13-36.7V71.34c0-11.85.94-26.14 8.62-35.83 8.7-10.98 23.77-13.06 36.9-13.06 12.8 0 27.73 1.8 36.48 12.2 8.2 9.63 9.05 24.57 9.05 36.7V84.2c0 11.84-.86 26.13-8.54 35.75-8.7 11.06-23.77 13.14-36.98 13.14zm0-17.67c5.67 0 14.65-.07 19.24-4.02 2.66-2.3 3.88-5.8 4.6-9.1 1.22-5.9 1.36-12.72 1.36-18.68v-11.7c0-5.96-.14-12.7-1.36-18.53-.8-3.38-2-6.83-4.67-9.2-4.53-4.02-13.43-4.1-19.17-4.1-5.67 0-14.65 0-19.17 4.03-2.67 2.3-3.9 5.74-4.6 9.05-1.3 5.88-1.38 12.7-1.38 18.74v11.7c0 5.96.08 12.7 1.37 18.53.7 3.3 1.93 6.82 4.58 9.12 4.6 4.02 13.43 4.16 19.18 4.16zM137.1 130.5V25.1h38.85c12.78 0 27.3 2.08 36.2 12.2 8.18 9.27 9.6 22.9 9.6 34.76v11.42c0 11.92-1.42 25.7-9.68 34.97-8.9 10.12-23.34 12.06-36.12 12.06H137.1zm19.6-87.3v69.3h19.25c5.9 0 13.93-.37 18.74-4.32 2.65-2.23 4.1-5.4 5.02-8.7 1.43-5.3 1.72-11.55 1.72-17v-9.5c0-5.44-.3-11.62-1.72-16.93-.86-3.3-2.3-6.47-5.03-8.7-4.75-3.87-12.86-4.16-18.75-4.16H156.7zM402 129.2v26.06h-19.82V87.7c0-10.18 1.3-22.46 9.26-29.8 7.04-6.45 17.74-7.53 26.93-7.53 8.98 0 19.6.94 26.64 7.26 8.27 7.4 9.27 20.4 9.27 30.8v6.32c0 9.7-.8 21.54-7.6 29.08-6.97 7.7-18.6 8.98-28.44 8.98-5.54 0-11.35-.93-16.23-3.58zm16.23-13.36c3.6 0 9.83 0 12.63-2.58 1.58-1.5 2.3-3.8 2.73-5.9.7-3.94.78-8.54.78-12.63v-6.32c0-4.16-.07-8.9-.86-12.92-.43-2.08-1.15-4.3-2.8-5.74-2.8-2.44-8.98-2.44-12.5-2.44-3.6 0-9.76 0-12.63 2.5-1.66 1.45-2.38 3.6-2.8 5.62-.87 3.87-.95 8.33-.95 12.27v10.07c0 4.3.07 11.92 3.52 15.15 3.02 2.8 9.05 2.94 12.86 2.94zm-94.8-16.44c0 3.95.37 9.33 2.74 11.7 2.58 2.6 8.9 2.6 12.35 2.6 3.45 0 6.9.06 10.4.06 5.4-.07 10.85-.14 16.24-.36l3.02-.07-3.52 17.1-1.87.06c-5.32.23-10.57.37-15.88.37-2.8 0-5.6-.07-8.4-.07-10.34 0-21.97-1.8-28.65-10.56-5.24-6.96-6.1-16.5-6.1-24.9v-7.9c0-8.92.86-19.33 6.6-26.65 6.82-8.7 18.53-10.43 28.87-10.43 20.54 0 33.32 8.12 33.32 29.3v2.08c0 5.03-.07 12.78-4.74 15.94-2.3 1.5-5.1 1.72-7.83 1.72h-36.56zm0-16.23h30.38V80.8c0-3.3-.13-8.33-2.57-10.84-2.73-2.95-9.05-3.02-12.7-3.02-3.4 0-9.34 0-12 2.6-1.44 1.28-2.08 3.3-2.44 5.16-.52 2.65-.66 5.67-.66 8.47zM250.2 99.4c.07 3.95.43 9.33 2.73 11.7 2.58 2.6 8.97 2.6 12.35 2.6 3.52 0 6.96.06 10.4.06 5.4-.07 10.85-.14 16.24-.36l3.08-.07-3.6 17.1-1.85.06c-5.24.23-10.56.37-15.87.37-2.8 0-5.6-.07-8.4-.07-10.34 0-21.9-1.8-28.58-10.56-5.24-6.96-6.18-16.5-6.18-24.9v-7.9c0-8.92.86-19.33 6.6-26.65 6.83-8.7 18.54-10.43 28.88-10.43 20.53 0 33.4 8.12 33.4 29.3v2.08c0 5.03-.16 12.78-4.82 15.94-2.23 1.5-5.1 1.72-7.76 1.72H250.2zm0-16.23h30.37V80.8c0-3.3-.14-8.33-2.5-10.84-2.8-2.95-9.06-3.02-12.8-3.02-3.37 0-9.33 0-11.98 2.6-1.45 1.28-2.03 3.3-2.38 5.16-.58 2.65-.72 5.67-.72 8.47z"/></g></svg>