<svg xmlns="http://www.w3.org/2000/svg" viewBox="-58 -30 890 197" fill="currentColor">
  <title>Deep Onion</title>
  <defs>
    <linearGradient id="a" x1="-1840.7" x2="-1840.7" y1="-5139.5" y2="-3405.9" gradientTransform="matrix(.072 0 0 -.072 158 -239)" gradientUnits="userSpaceOnUse">
      <stop offset="0" stop-color="#D9B225"/>
      <stop offset="1" stop-color="#FFFF96"/>
    </linearGradient>
    <linearGradient id="b" x1="-1841.1" x2="-1841.1" y1="-4012.9" y2="-4243.2" gradientTransform="matrix(.072 0 0 -.072 158 -239)" gradientUnits="userSpaceOnUse">
      <stop offset="0" stop-color="#B5892A"/>
      <stop offset="1" stop-color="#FEFEFE"/>
    </linearGradient>
    <linearGradient id="c" x1="-1840.1" x2="-1840.1" y1="-5174.7" y2="-3398.5" gradientTransform="matrix(.072 0 0 -.072 158 -239)" gradientUnits="userSpaceOnUse">
      <stop offset="0" stop-color="#FFFF96"/>
      <stop offset="1" stop-color="#DBAD09"/>
    </linearGradient>
  </defs>
  <path fill="url(#a)" d="M87 48C71 31 46 8 43-4s4-22 4-22c-11 0-18 5-21 12-4-7-10-12-22-12 0 0 7 10 5 22C6 8-19 31-35 48a66 66 0 0 0-13 75c31 55 118 52 148 0 11-23 9-51-13-75zM26 149c-27 0-58-15-65-44-8-34 26-55 46-76 2 2 6 5 8 9l-4 4c-16 16-45 34-39 60l4 10s16 24 50 24 49-24 49-24l4-10c6-26-22-44-39-60L17 18l9-10 9 12c24 25 64 48 55 85-7 29-37 44-64 44zm20-66-4-5 8-9c12 13 24 28 6 43-8 7-19 10-30 10s-23-3-31-10c-18-15-6-30 6-43l9 9-5 5c-5 7-5 12-2 17 11 12 36 11 46 0 3-5 3-10-3-17zM36 94c-6 3-15 3-20-1l4-23c-3-2-6-6-6-10 0-7 5-12 12-12 6 0 11 5 11 12 0 4-2 8-6 10l5 23z"/>
  <path fill="#b5892a" d="M37 78h5l8-9v-5L37 78zM1 69v-5l14 14h-5Zm6-45v5l3 4 5 5h5c-4-6-7-9-13-14Zm5-5 5-1c2-2 8-7 9-10V2L12 19Z"/>
  <path fill="#fff" d="M47-26c-11-1-18 5-21 12-4-7-10-13-22-12l6 4c9 2 13 8 16 15 3-7 6-13 15-15l6-4z"/>
  <path fill="url(#b)" d="m20 70-4 2c-3-3-6-7-6-12 0-8 7-16 16-16 8 0 15 7 15 16 1 4-2 9-6 12l-4-2c4-2 6-6 6-10 0-7-5-12-11-12-7 0-12 5-12 12 0 4 3 8 6 10z"/>
  <path fill="#fff" d="m12 95 4-2c5 4 14 4 20 1l4 1c-10 7-21 7-28 0z"/>
  <path fill="#a87925" d="M6 98c7 10 32 10 39 0l4 1c-5 7-15 10-23 10-9 0-19-3-23-9l3-2z"/>
  <path fill="#fff" d="m-11 106 6 6c8 7 20 10 31 10s22-3 30-10l6-6 4 1-7 8c-9 8-22 11-33 11-12 0-25-3-33-11l-7-8 3-1z"/>
  <path fill="#a87925" d="M-21 110c9 16 29 23 47 23 17 0 37-7 46-23l3 2c-9 17-31 25-49 25-19 0-41-8-50-25l3-2z"/>
  <path fill="#fff" d="M-35 117c12 21 38 32 61 32s49-11 60-32l4 1c-12 23-39 35-64 35s-53-12-64-35Z"/>
  <path fill="#a87925" d="M-48 123c12 24 39 41 74 41 34 0 62-17 74-41l-4-2c-5 10-12 18-21 25a85 85 0 0 1-49 15c-18 0-35-5-50-15-8-7-16-15-21-25l-3 2z"/>
  <path fill="url(#c)" d="M41-22c-9 2-12 8-15 15-4-7-7-13-16-15 3 6 4 12 2 19-1 6-7 13-10 17l-19 20-16 17c-7 8-13 18-16 29-3 10-3 20 0 30 4 14 13 27 25 36a89 89 0 0 0 99 0c12-9 22-22 26-36 2-10 2-20 0-30-3-11-9-21-17-29L69 34 50 14c-4-4-9-11-11-17-1-7 0-13 2-19zM20 38-6 62c-7 7-15 16-18 26v14c5 21 29 31 50 31 20 0 45-10 50-31 1-5 1-10-1-14-4-18-25-32-37-44L12 19 26 2c7 13 23 26 34 36 13 12 28 27 33 44 2 8 3 16 1 24-7 31-39 47-68 47-30 0-61-16-68-47-2-9-2-18 1-27 8-22 32-38 48-55l13 13zm23 47-6-7 13-14 3 3 3 3c6 7 12 15 13 24 0 9-4 16-11 21-8 8-21 10-32 10-12 0-24-2-33-10-6-5-11-12-10-21 0-10 9-20 16-27l2-3 14 14-7 7c-3 3-5 7-3 11 5 13 37 13 42 0 1-4-1-8-4-11zM16 72a15 15 0 1 1 19 0l5 23c-10 6-18 6-28 0l4-23z"/>
  <path d="M778 131h-20V77c0-22 16-27 35-27s35 5 35 27v54h-20V80l-1-9c-3-3-11-4-14-4-4 0-12 1-14 4l-1 9v51zm-66-81c9 0 20 1 27 8 8 7 9 20 9 30v7c0 11-1 23-9 30-7 7-18 8-27 8s-20-1-28-8-9-19-9-30v-7c0-10 1-23 9-30s19-8 28-8zm16 45v-7l-1-12-2-6c-3-3-10-3-13-3-4 0-10 0-13 3-2 1-3 4-3 6l-1 12v7l1 13c0 2 1 4 3 5 3 3 9 3 13 3 3 0 10 0 13-3l2-5 1-13zm-82 36V53h19v78h-19zm21-98c0 8-4 12-12 12-7 0-11-4-11-12s4-11 11-11c8 0 12 3 12 11zm-83 98h-19V77c0-22 16-27 34-27 19 0 35 5 35 27v54h-20V80l-1-9c-2-3-10-4-14-4-3 0-11 1-13 4-2 2-2 6-2 9v51zm-75 2c-13 0-28-2-37-12-8-10-9-25-9-37V71c0-12 1-26 9-35 8-11 23-14 37-14 12 0 27 2 36 13 8 9 9 24 9 36v13c0 12-1 26-8 36-9 11-24 13-37 13zm0-18c5 0 14 0 19-4 2-2 4-5 4-9 2-6 2-12 2-18V72c0-6 0-13-2-19 0-3-2-6-4-9-5-4-14-4-19-4-6 0-15 0-20 4-2 2-4 6-4 9-2 6-2 13-2 19v12c0 6 0 12 2 18 0 3 2 7 4 9 5 4 14 4 20 4zm-372 16V25h39c13 0 27 2 36 12 8 10 10 23 10 35v11c0 12-2 26-10 35-9 11-23 13-36 13h-39Zm20-88v70h19c6 0 14-1 19-5 2-2 4-5 5-9l1-17v-9l-1-17-5-9c-5-4-13-4-19-4h-19Zm245 86v26h-20V88c0-10 1-23 9-30 7-7 18-8 27-8s20 1 27 8c8 7 9 20 9 30v7c0 9-1 21-7 29-7 8-19 9-29 9-5 0-11-1-16-4zm16-13c4 0 10 0 13-3l3-6V75l-3-5c-3-3-9-3-13-3-3 0-10 0-12 3-2 1-3 3-3 5l-1 13v10c0 4 0 12 3 15s9 3 13 3zm-95-17c0 4 1 10 3 12 3 3 9 3 13 3h10l16-1h3l-3 17h-2l-16 1h-8c-11 0-22-2-29-11-5-7-6-16-6-25v-8c0-8 1-19 6-26 7-9 19-11 29-11 21 0 34 8 34 30v2c0 5-1 13-5 16l-8 1h-37zm0-16h31v-2c0-4 0-9-3-11-2-3-9-3-12-3-4 0-10 0-12 3-2 1-3 3-3 5l-1 8zm-73 16c0 4 1 10 3 12 3 3 9 3 12 3h11l16-1h3l-4 17h-1l-16 1h-9c-10 0-22-2-28-11-6-7-6-16-6-25v-8c0-8 0-19 6-26 7-9 19-11 29-11 21 0 33 8 33 30v2c0 5 0 13-4 16l-8 1h-37Zm0-16h31v-2c0-4-1-9-3-11-3-3-9-3-13-3-3 0-9 0-12 3l-2 5-1 8z"/>
</svg>
