<svg xmlns="http://www.w3.org/2000/svg" width="213" height="82" viewBox="0 0 213 82">
  <title>Ergo</title>
  <path d="m41 7 24 10 10 24-10 24-24 10-24-10L7 41l10-24Zm0-7h-1L13 11a3 3 0 0 0-2 2L0 40a3 3 0 0 0 0 2l11 27a3 3 0 0 0 2 2l27 11a3 3 0 0 0 2 0l27-11a3 3 0 0 0 2-2l11-27a3 3 0 0 0 0-2L71 13a3 3 0 0 0-2-2L42 0a3 3 0 0 0-1 0Zm56 31v6h16v7H97v7h16v6H90V25h23v6H97Zm31 15h-4v11h-7V25h15c6 0 11 4 11 10 0 3-1 5-3 7a9 9 0 0 1-4 3l8 12h-9l-7-11zm-4-15v8h7c2 0 4-1 4-4 0-2-2-4-4-4zm45 18v-4h-9v-6h16v13c-4 4-8 6-14 6-9 0-17-7-17-17s8-17 17-17c6 0 10 2 14 7v1l-6 3v-1a9 9 0 0 0-8-3c-5 0-9 4-9 10s4 10 9 10l7-2zm10-8c0-10 7-17 17-17 9 0 16 7 16 17s-7 17-16 17c-10 0-17-7-17-17zm26 0c0-6-3-10-9-10s-10 4-10 10 4 10 10 10 9-4 9-10zM38 52h16v7H28v-7l10-11-10-11v-7h26v7H39l9 11-10 11z"/>
</svg>
