<svg xmlns="http://www.w3.org/2000/svg" xmlns:xlink="http://www.w3.org/1999/xlink" viewBox="0 0 331.2 184.8">
  <title>Omniscient</title>
  <defs>
    <radialGradient id="rg" xlink:href="#lg" cx="165.6" cy="49.2" r="52.5" fx="165.6" fy="49.2" gradientTransform="matrix(1 0 0 .93705 0 3.1)" gradientUnits="userSpaceOnUse"/>
    <linearGradient id="lg">
      <stop id="stop1468" offset="0" stop-color="#87dfce"/>
      <stop id="stop1470" offset="1" stop-color="#1a9ac3"/>
    </linearGradient>
  </defs>
  <style>
    path{transition:all 300ms;filter:drop-shadow(1px 1px 3px rgba(0,0,0,.4))}
  </style>
  <path fill="#27255f" d="M322 172.2c0 5.8 2.7 9.8 9.2 9.5v2.2c-7.3.7-11.6-4.2-11.6-11.7v-19.8H315V150h4.6v-7.2h2.4v7.2h9.2v2.4H322ZM309.9 184h-2.4v-20.5c0-7.4-4-11.9-11.5-11.9-6.9 0-12.2 5.1-12.2 12V184h-2.4v-34h2.4v5.7a14 14 0 0 1 12.3-6.6c8.7 0 13.8 5.5 13.8 14.3zm-66.5-17a15 15 0 0 0 14.9 15.4c8 0 11.6-4.4 13.2-8.9h2.6a15.4 15.4 0 0 1-15.8 11.3c-9.7 0-17.3-7.8-17.3-17.7 0-9.9 7.6-17.9 16.9-17.9 10.1 0 17.1 9.2 16.9 17.8zm28.8-2.4a14.9 14.9 0 0 0-14.3-12.8c-7.2 0-13.1 5.5-14.2 12.8zm-38.1-20.2h-2.4v-6h2.4zm0 39.6h-2.4v-34h2.4zm-25.8.8c-9.4 0-16.9-7.9-16.9-17.7 0-9.9 7.6-17.9 16.9-17.9 7.5 0 13.4 4.5 15.7 11.3h-2.6c-2.2-5.4-7-8.8-13-8.8-8 0-14.5 7-14.5 15.4s6.5 15.2 14.5 15.2c6.3 0 11.1-3.4 13.1-8.9h2.6a16.4 16.4 0 0 1-15.8 11.4zm-23.3-3.9c-2.4 2.5-6.5 4-11.2 4-8.6 0-14.6-3.8-15.7-10.7h2.4c1.2 5.5 6.1 8.4 13.2 8.4a13 13 0 0 0 9.5-3.4 5.8 5.8 0 0 0 1.6-4.7c-.1-4.2-3.5-6.3-11.8-7.4-5.9-.9-13.1-1.8-13.2-8.6 0-4.6 4.3-9.2 12.8-9.2 7.5 0 12.5 3.4 13.9 9.5H184c-1.4-4.5-5.3-7.2-11.3-7.2-6.1 0-10.5 3-10.4 7 .1 3.8 3.6 5 11.1 6.1 7.1 1.1 13.6 3 13.9 9.8a9 9 0 0 1-2.3 6.4zm-34.2-36.5h-2.4v-6h2.4zm0 39.6h-2.4v-34h2.4zm-11.9 0h-2.5v-20.5c0-7.4-4-11.9-11.5-11.9-6.9 0-12.2 5.1-12.2 12V184h-2.4v-34h2.4v5.7a14 14 0 0 1 12.3-6.6c8.7 0 13.8 5.5 13.8 14.3V184zm-37.8 0h-2.4v-22a10 10 0 0 0-10.5-10.4A10 10 0 0 0 77.8 162v22h-2.4v-22a10 10 0 0 0-10.5-10.4A10 10 0 0 0 54.5 162v22h-2.4v-34h2.4v4.6c2.1-3.4 5.8-5.5 10.4-5.5 5.5 0 9.9 3 11.9 7.5a12 12 0 0 1 11.5-7.5c7.5 0 12.9 5.5 12.9 13v21.8zm-55.9-23a23.3 23.3 0 0 1-22.6 24A23.3 23.3 0 0 1 0 161a23.2 23.2 0 0 1 22.6-23.8c12.7 0 22.6 10.4 22.6 23.8zm-2.5 0c0-12-8.8-21.3-20.1-21.3A20.8 20.8 0 0 0 2.4 161c0 12 9 21.4 20.2 21.4s20.1-9.7 20.1-21.4z"/>
  <path fill="url(#rg)" d="M170.2 33.1c2-1.7 3-4.4 2.4-7a7.3 7.3 0 0 0-4.7-5.6h-.4a7.4 7.4 0 0 0-7.2 1.4c-1 1-1.2 2.5-.2 3.5.9 1 2.5 1.2 3.5.2.7-.6 1.6-.7 2.4-.5.8.3 1.5 1 1.6 2 .2.8-.2 1.7-.8 2.3h-.1c-1 1-1.2 2.5-.2 3.5 1 1.1 2.6 1.2 3.7.2 0 .1 0 .1 0 0zm-6-33A27.5 27.5 0 0 0 141 14.6a2.6 2.6 0 0 0 1 3.4c1.2.6 2.7.2 3.4-1a22.3 22.3 0 0 1 19-12c8.4-.4 15.8 4 19.9 10.4v.1c.7 1.2 2.3 1.5 3.5.8 1.2-.7 1.5-2.3.8-3.4h-.1a27.2 27.2 0 0 0-24.2-13zM148 24.5a17.4 17.4 0 0 0 6 16.3v.1c1.2 1 2.7.7 3.6-.3.9-1 .7-2.6-.3-3.5a12.4 12.4 0 0 1 3.6-21.3c1.4-.5 2-1.9 1.6-3.2a2.6 2.6 0 0 0-3.2-1.5h-.1c-5.7 2.1-10.1 7-11.2 13.4zm4.2 21.2a22.3 22.3 0 0 1-9.2-20.5c0-1.5-1-2.7-2.2-2.8-1.4 0-2.6 1-2.7 2.2v.1c-1 9.5 3 19.1 11.3 25.1 1 .8 2.7.5 3.5-.6.7-1 .4-2.7-.7-3.5zM187.7 25c.9 8.3-2.8 16-9 20.6h-.1a2.5 2.5 0 0 0-.5 3.5 2.4 2.4 0 0 0 3.5.5 27.4 27.4 0 0 0 11-25.3 2.3 2.3 0 0 0-2.7-2.2c-1.4.3-2.4 1.5-2.2 3zm-10.1.3c.8 4.6-1 9-4.3 11.7h-.1a2.4 2.4 0 0 0-.3 3.5 2.4 2.4 0 0 0 3.5.3 17.6 17.6 0 0 0 6-16.5 2.4 2.4 0 0 0-2.8-2c-1.3.4-2.2 1.7-2 3zm5.6 47a7.4 7.4 0 0 0 12 4.5s0-.2.2-.2a7.3 7.3 0 0 0 2.5-7 2.4 2.4 0 0 0-3-2 2.4 2.4 0 0 0-2 3c.3.8-.1 1.7-.8 2.2-.7.5-1.6.8-2.4.4-1-.3-1.4-1-1.6-1.9a2.4 2.4 0 0 0-3-2 2.5 2.5 0 0 0-2 3zM215 83.7c4.7-9 4-19.4-1.1-27.5a2.5 2.5 0 0 0-3.4-.8 2.5 2.5 0 0 0-.8 3.4 22.6 22.6 0 0 1-18.2 34.5h-.1c-1.4.1-2.5 1.2-2.4 2.6 0 1.4 1.2 2.5 2.6 2.4 9.6-.3 18.6-5.6 23.4-14.6zm-13.2-26.4c-5-4-11.5-5-17.1-2.9h-.1a2.6 2.6 0 0 0-1.5 3.2 2.6 2.6 0 0 0 3.2 1.5A12.5 12.5 0 0 1 203 73v.1c-.2 1.4.7 2.7 2 3 1.5.1 2.7-.8 3-2.2.9-5.9-1.2-12.3-6.2-16.4zm-20.4-7a22.4 22.4 0 0 1 22.4 2.3v.1c1.2.8 2.8.5 3.6-.6.8-1 .6-2.7-.6-3.5h-.1a27.6 27.6 0 0 0-27.4-2.7 2.6 2.6 0 0 0-1.3 3.3 2.7 2.7 0 0 0 3.4 1.1zm.2 41.2a22.5 22.5 0 0 1-13.3-18.2 2.6 2.6 0 0 0-2.8-2.3c-1.4.2-2.4 1.4-2.2 2.8v.1c1 9.4 7 18.1 16.3 22.2 1.3.6 2.7 0 3.3-1.3.5-1.3 0-2.8-1.3-3.3zm4.8-8.9a12.2 12.2 0 0 1-8-9.6 2.4 2.4 0 0 0-3-2 2.4 2.4 0 0 0-2 2.8v.1c1.2 6 5.3 11.2 11.4 13.4 1.3.5 2.7-.2 3.2-1.5.3-1.3-.3-2.7-1.6-3.2zM143 63.8a7.5 7.5 0 0 0-10 8.2v.2l.2.2A7.4 7.4 0 0 0 138 78c1.3.5 2.7-.2 3.2-1.5s-.2-2.7-1.5-3.2c-1-.3-1.5-1-1.6-1.9-.2-.8 0-1.7.8-2.3.7-.6 1.6-.7 2.4-.5 1.4.5 2.8-.2 3.3-1.5s-.2-2.8-1.6-3.2zm-25.8 21.7a27.3 27.3 0 0 0 24.3 12.8c1.4 0 2.5-1.2 2.4-2.6 0-1.4-1.2-2.5-2.6-2.4-7.8.3-15.5-3.4-20-10.5a22.6 22.6 0 0 1-.7-22.5c.6-1.3.2-2.8-1-3.5a2.6 2.6 0 0 0-3.4 1v.1a27.8 27.8 0 0 0 1 27.6zm29.5 1.7c6-2.3 10-7.5 11-13.4.3-1.5-.6-2.7-2-3-1.4-.2-2.7.7-3 2.1-.6 4.3-3.5 8-7.8 9.7-4.3 1.6-9 .7-12.3-2l-.1-.2a2.5 2.5 0 0 0-3.5.3c-1 1.1-.7 2.6.3 3.5a17.4 17.4 0 0 0 17.4 3zM163 73a22.6 22.6 0 0 1-13.1 18.3h-.1a2.4 2.4 0 0 0-1.2 3.3c.6 1.3 2 1.8 3.3 1.3 8.8-3.9 15-12.2 16.2-22.3 0-1.4-1-2.6-2.2-2.7-1.5-.2-2.8.8-3 2.1zm-35.7-20.3a22.6 22.6 0 0 1 22.4-2.5c1.4.6 2.8 0 3.4-1.3.6-1.3 0-2.7-1.3-3.3h-.1c-8.7-3.8-19.1-3-27.3 3.1a2.4 2.4 0 0 0-.5 3.5c.7 1 2.2 1.3 3.4.5zm5.3 8.5c3.5-3 8.2-3.6 12.3-2.2 1.4.5 2.8-.2 3.3-1.5s-.2-2.7-1.5-3.2h-.1a17.4 17.4 0 0 0-17.2 3 2.4 2.4 0 0 0-.3 3.5c.8 1.2 2.4 1.3 3.5.4z"/>
</svg>
