<?xml version="1.0" encoding="UTF-8"?>
<svg width="512px" height="512px" viewBox="0 0 512 512" version="1.1" xmlns="http://www.w3.org/2000/svg" xmlns:xlink="http://www.w3.org/1999/xlink">
    <!-- Generator: Sketch 46.2 (44496) - http://www.bohemiancoding.com/sketch -->
    <title>technological</title>
    <desc>Created with Sketch.</desc>
    <defs/>
    <g id="Page-1" stroke="none" stroke-width="1" fill="none" fill-rule="evenodd">
        <g id="technological" fill-rule="nonzero">
            <circle id="Oval" fill="#E6F3FF" cx="256" cy="256" r="256"/>
            <rect id="Rectangle-path" fill="#FD8469" x="152.135" y="113.778" width="28.444" height="56.889"/>
            <rect id="Rectangle-path" fill="#FC6F58" x="331.421" y="113.778" width="28.444" height="56.889"/>
            <rect id="Rectangle-path" fill="#31BAFD" x="199.111" y="182.734" width="113.778" height="56.889"/>
            <rect id="Rectangle-path" fill="#2B9ED8" x="256" y="182.734" width="56.889" height="56.889"/>
            <rect id="Rectangle-path" fill="#31BAFD" x="162.047" y="227.556" width="31.323" height="142.222"/>
            <rect id="Rectangle-path" fill="#2B9ED8" x="318.629" y="227.556" width="31.323" height="142.222"/>
            <path d="M319.928,199.542 L192.071,199.542 C180.25,199.542 170.667,189.959 170.667,178.138 L170.667,107.17 C170.667,95.349 180.25,85.764 192.071,85.764 L319.928,85.764 C331.749,85.764 341.334,95.347 341.334,107.17 L341.334,178.138 C341.333,189.959 331.75,199.542 319.928,199.542 Z" id="Shape" fill="#324A5E"/>
            <g id="Group" transform="translate(184.000000, 85.000000)" fill="#2B3B4E">
                <path d="M135.928,0.764 L72,0.764 L72,114.542 L135.928,114.542 C147.749,114.542 157.334,104.959 157.334,93.136 L157.334,22.17 C157.333,10.347 147.75,0.764 135.928,0.764 Z" id="Shape"/>
                <path d="M72,370.542 L72,370.542 C32.726,370.542 0.889,338.705 0.889,299.431 L0.889,142.987 L143.111,142.987 L143.111,299.431 C143.111,338.705 111.274,370.542 72,370.542 Z" id="Shape"/>
            </g>
            <path d="M256,227.987 L256,455.543 C295.272,455.543 327.111,423.706 327.111,384.432 L327.111,227.987 L256,227.987 Z" id="Shape" fill="#1B2A38"/>
            <circle id="Oval" fill="#31BAFD" cx="210.954" cy="142.653" r="26.721"/>
            <circle id="Oval" fill="#B5F1F4" cx="210.954" cy="142.653" r="13.765"/>
            <circle id="Oval" fill="#2B9ED8" cx="301.028" cy="142.653" r="26.721"/>
            <circle id="Oval" fill="#84DBFF" cx="301.028" cy="142.653" r="13.765"/>
        </g>
    </g>
</svg>