<svg xmlns="http://www.w3.org/2000/svg" viewBox="0 0 512 512">
  <title>Sentinel</title>
  <circle cx="254.1" cy="256" r="256" fill="#e6f3ff"/>
  <path fill="#fd8469" d="M152 114h28v57h-28z"/>
  <path fill="#fc6f58" d="M331 114h28v57h-28z"/>
  <path fill="#31bafd" d="M162 228h31v142h-31zm37-45h114v57H199z"/>
  <path fill="#2b9ed8" d="M319 228h31v142h-31Zm-63-45h57v57h-57Z"/>
  <path fill="#324a5e" d="M320 200H192c-12 0-21-10-21-22v-71c0-12 9-21 21-21h128c12 0 21 9 21 21v71c0 12-9 22-21 22z"/>
  <path fill="#2b3b4e" d="M320 86h-64v114h64c12 0 21-10 21-22v-71c0-12-9-21-21-21Zm-64 370c-39 0-71-32-71-72V228h142v156c0 40-32 72-71 72Z"/>
  <path fill="#1b2a38" d="M256 228v228c39 0 71-32 71-72V228Z"/>
  <circle cx="211" cy="142.7" r="26.7" fill="#31bafd"/>
  <circle cx="211" cy="142.7" r="13.8" fill="#b5f1f4"/>
  <circle cx="301" cy="142.7" r="26.7" fill="#2b9ed8"/>
  <circle cx="301" cy="142.7" r="13.8" fill="#84dbff"/>
</svg>
