<svg xmlns="http://www.w3.org/2000/svg" xml:space="preserve" viewBox="77 640 135 37.54">
  <g fill="#59395e">
    <path d="M211.33 664.84zm-68.46 1.69v2.7h.68v1.34h.67v.68h1.35v.79h2.02v-.8h1.35v-.67h.68v-1.34h.67V648.2h-.67v-1.35h-.68v-.68h-1.35v-.67h-2.02v.67h-1.35v.68h-.67v1.46h-.68zm.68-17.54h.67v-1.35h.67v-.78h1.35v-.68h.68v.68h1.35v.78h.67V649h.68v19.56h-.68v1.35h-.67v.79h-1.35v.67h-.68v-.67h-1.35v-.79h-.67v-1.35h-.79V649Z"/>
    <path d="M211.33 655.06v-.67h.67v-6.86h-.79v-2.02h-.67v-1.35h-.67v-.68h-.68v-.67h-.67v-.67h-.68v-.68h-1.35v-.67h-1.35v-.68h-4.72v.68h-1.35v.67h-1.34v.68h-.68v.67h-.67v.67h-.68v.68h-.67v1.35h-.68v-4.72h-.78v-.68h-4.72v.68h-.68v27.76h-.67v1.35h-.68v.79h-1.35v.67h-.67v-.67h-1.35v-.79h-.67v-1.35h-.68v-5.4h-.67v-.67h-4.72v.68h-.68v7.53h-3.48v-29.9h-.68v-.68h-4.72v.68h-.67v16.3h-.68v-2.03h-.67v-2.02h-.68v-2.02h-.67v-2.03h-.68v-2.13h-.67v-2.03h-.67v-2.02h-.68v-2.02h-.67v-.68h-4.72v.68H155v4.04h-.67v-.67h-.68v-.68H153v-.67h-.68v-.67h-.78v-.8h-1.35v-.67h-1.35V640h-4.72v.67h-1.35v.68h-1.35v.79h-.56v.67h-.79v.67h-.67v.68h-.68v1.35h-.67v1.35h-.68v23.04h.68v-22.37h.67v-1.35h.68v-1.35h.67v-.67h.79v-.68h.67v-.67h.68v-.67h1.35v-.68h1.34v-.67h3.38v.67h1.35v.68h1.34v.67h.68v.67h.67v.68h.68v.67h.67v1.35h.68v1.35h.67v22.37h-.67v1.35h-.68v1.35H153v.78h-.68v.68h-.67v.67h-.68v.68h-1.34v.67h-1.35v.68h-3.38v-.68h-1.34v-.67h-1.35v-.68h-.8v-.78h-.67v-.68h-.67v-.67h-.67v-1.35h-.68v-1.35h-.67v.67h-6.75V640.8h-.67v-.68h-4.72v.68h-.68v2.7h-.67v-.68h-.79v-.67h-.67v-.68h-.68v-.67h-1.35v-.68h-10.79v.68h-.67v4.04h-.68v-.67h-.78v-.68h-.68v-.78h-.67v-.68h-.68v-.67h-1.35v-.68h-1.23V640H98.7v.67h-1.34v.68H96v.67h-.68v.68h-.67v.78h-.68v-2.8h-.67V640h-4.72v.67h-.68v4.05h-.67v4.16h-.68v3.37h-.67v4.05h-.67v-4.05h-.68v-3.37h-.79v-4.05h-.67v-4.04h-.67V640h-4.61v.79H77v5.4h.79v3.48h.67v4.04h.68v4.05h.67v4.05h.67v4.04h.68v3.38h.67v3.48h.68v4.05h.67v.67h4.72v-.67h.68v-4.05h.78v-3.48h.68v-3.38h.67v-4.04h.68v-4.05h.67v12.14h.68v-20.8h-.68v4.05h-.67v4.05h-.68v4.04h-.67v4.05h-.68v3.37h-.78v3.49h-.68v4.05h-.67v.67h-3.37v-.67h-.68v-4.05h-.67v-3.49h-.79v-3.37h-.56v-4.05h-.68v-4.04h-.67v-4.05h-.79v-4.05h-.67v-3.48h-.68v-4.05h.68v-.67h3.48v.67h.68v4.05h.67v4.16h.68v3.37h.67v4.05h.68v4.04h.67v-4.04h.67v-4.05h.68v-3.37h.67v-4.16h.79v-4.05h.67v-.67h3.38v.67h.67v4.05h-.67v2.14h.67v-1.47h.68v-1.34h.67v-.68h.67v-.67h.68v-.68h.67v-.67h1.35v-.68h1.35v-.67h3.49v.67h1.34v.68h1.35v.67h.68v.68h.67v.67h.68v.68h.67v1.34h.68v1.35h.67v22.37h-.67v1.35h-.68v1.35h-.67v.79H107v.67h-.67v.68h-.79v.67h-1.35v.68h-1.35v.67h-3.37v-.67h-1.35v-.68h-1.35v-.67h-.67v-.8h-.79v-.67h-.67v-.67h-.68v-1.35h-.67v-1.35h-.68v2.03h.68v1.34h.67v.68h.68v.79h.67v.67H96v.68h1.35v.67h1.46v.67h4.72v-.67h1.35v-.67h1.35v-.68h.67v-.67h.67v-.8h.68v-.67h.67v-1.34h.68v4.16h.67v.67h4.84v-.67h.67v-13.04h.67v2.02h.68v2.02h.67v2.7h.68v2.14h.67v2.02h.68v2.02h.67v.68h4.84v-.68h.67v.68h12.81v-.68h.68v-2.13h.67v.78h.68v.68h.67v.67h1.35v.68h1.35v.67h4.83v-.67h1.35v-.68h1.35v-.67h.68v-.79h.67v-.67h.67v-.68h.68v-1.35h.67v4.16h.68v.68h4.72v-.68h.79v-14.27h.67v2.02h.67v2.02h.68v2.03h.67V670h.68v2.03h.67v2.02h.68v2.02h.67v.68h5.5v-.68h.68v.68h4.05v-.68h.67v-2.8h.68v.78h.67v.67h.68v.68h.67v.67h1.35v.68H183v.67h4.72v-.67h1.35v-.68h1.35v-.67h.79v-.68h.67v-.78h.67v-.68h.68v-1.35h.67v-.67h.68v.67h.67v1.35h.68v.68h.67v.67h.68v.79h.67v.67h1.35v.68h1.35v.67h4.83v-.67h1.35v-.68h1.35v-.67h.67v-.68h.68v-.78h.67v-.68h.68v-1.35h.67v-7.08h-.67v-1.01h-.68v-1.35h-.67v-1.35h-.68v-1.35h-.67v-.67h-.68v-.68h-.78v-.67h-.68v-.67h-.67v-.8h-.68v-.67h-.67v-.67h-.67v-.67h-.68v-1.35H202v-1.35h-.68v-1.35h-.67v-2.7h.67v-.67h1.35v-.68h.68v.68h1.34v.78h.68V649h.67v5.4h.68v.67h4.5zm-86.1 20.35h-.68v.67h-3.49v-.67h-.67v-2.03h-.68v-2.13h-.67v-2.02h-.67v-2.7h-.68v-2.03h-.67v-2.02h-.68v-2.02H115v14.84h-.67v.78h-3.37v-.67h-.68v-33.95h.68v-.67h9.55v.67h1.35v.68h.67v.67h.68v.67h.67v.8h.68v1.34h.67v10.8h-.67v1.34h-.68v.67h-.67v.68h-.68v.67h-1.34v3.49h.67v2.02h.67v2.02h.68v2.03h.67v2.02h.68v2.02h.67zm-.68-5.17v-1.69h-.68v-2.02h-.78v-2.03h-.68v-2.02h-.67v-2.02h1.35v-.68h.67v-.67h.68v-.68h.78v11.8zm14.16 5.17h-.67v.67h-11.47v-.67h-.67v-33.95h.67v-.67h3.37v.67h.68v29.79h7.42v.79h.67zm33.27 0h-.67v.67h-4.05v-.67h-.78v-2.03h-.68v-2.13h-.67v-2.02h-.68v-2.03h-.67v-2.02h-.68v-2.02h-.67v-2.03h-.67v-2.02h-.68v-2.02h-.67v18.32h-.68v.67h-3.37v-.67h-.67v-33.95h.67v-.67h3.37v.67h.68v2.02h.78v2.03h.68v2.02h.67v2.14h.68v2.02h.67v2.02h.68v2.03h.67v2.02h.67v2.02h.68v2.03h.79v-20.35h.67v-.67h3.37v.67h.68v33.95zm4.73 0h-.68v.67h-2.7v-.67h-.67v-3.49h.67v-.67h2.7v.67h.68zm16.97-5.51H193v1.35h-.67v1.35h-.67v.67h-.8v.79h-.67v.67h-.67v.68h-1.35v.67h-1.35v.68h-3.37v-.68h-1.35v-.67h-1.35v-.68h-.67v-.78h-.68v-.68h-.67v-.67h-.68v-1.35h-.67v-1.35h-.67v-6.07h.67v-.67h3.37v.67h.68v5.4h.67v1.34h.79v.68h1.35v.67h2.02v-.67h1.35v-.68h.67v-1.34h.68v-27.77h.67v-.67H193v.67h.68zm.67-17.54h.68v1.35h.67v1.35h.68v1.35h.67v1.35h.68v.67h.67v.68h.67v.67h.8v.68h.67c.33 0 0 .67 0 .67h.67v.68h.67v.67h.68v.68h.67v1.34h.68v1.35h.67v1.35h.68v2.81h-.68v.68h-1.35v.67h-.67v-.67h-1.35V670h-.67v-1.46h-.68v-5.4h-.67v-.67h-4.72v-10.23h-.12zm11.47-4.04v-1.35h-.68v-.79h-1.34v-.67h-2.03v.67h-1.35v.68h-.67v4.16h.67v1.34h.68v1.35h.67v1.35h.68v.68h.67v.67h.68v.68h.78v.67h.68v.67h.67v.68h.68v.67h.67v.68h.67v1.35h.68v1.35h.67v1.34h.68v1.35h.67v5.51h-.67v1.35h-.68v.67h-.67v.68h-.68v.67h-.67v.68h-1.35v.67h-1.35v.68h-3.37v-.68h-1.35v-.67h-1.35v-.79h-.67v-.67h-.68v-.68h-.78v-.67h-.68v-1.35h-.67v-2.02h-.68v-5.4h.68v-.67h3.37v.67h.79v5.4h.67v1.34h.68v.68h1.34v.67h2.03v-.67h1.35v-.68h.67v-4.04h-.67v-1.35h-.68v-1.35h-.67v-1.35h-.68v-.67h-.78v-.68h-.68v-.67h-.67v-.68h-.68v-.67h-.67v-.68h-.68v-.78h-.67v-.68h-.67v-1.35h-.68v-1.34h-.67v-1.35h-.68v-1.35h-.78v-5.4h.78v-1.35h.68v-.67h.67v-.68h.68v-.67h.67v-.67h1.35v-.68h1.35v-.67h3.37v.67h1.35v.68h1.35v.67h.67v.67h.68v.68h.67v.67h.68v1.35h.78v2.14h.68v5.4h-.68v.67h-3.48v-.68h-.68v-5.4z"/>
    <path d="M120.5 655.74v-9.56h-1.35v-.67H115v10.9h4.05v-.67zm-2.13-.68v.68h-2.7v-9.56h2.7v.68h1.34v8.2zm-20.91 11.47v2.7h.67v1.34h.68v.68h1.35v.79h2.02v-.8h1.35v-.67h.67v-1.34h.68V648.2h-.68v-1.35h-.67v-.68h-1.35v-.67h-2.02v.67H98.8v.68h-.68v1.46h-.78v18.2zm.67-17.54h.68v-1.35h.67v-.78h1.35v-.68h.67v.68h1.35v.78h.68V649h.67v19.56h-.67v1.35h-.68v.79h-1.35v.67h-.67v-.67h-1.35v-.79h-.67v-1.35h-.79V649Z"/>
  </g>
  <path fill="#3c1942" d="M201.1 640.79h3.37v.67h-3.37zm3.37.67h1.35v.68h-1.35zm1.35.68h1.35v.67h-1.35zm2.7 2.02h.67v.67h-.67zm-.68-.68h.68v.68h-.68zm-.67-.67h.67v.67h-.67zm2.02 2.02h.68v1.35h-.68zm.79 1.35h.67v2.03h-.67zm.67 2.14h.68v5.4h-.68zm-3.48 5.4h3.37v.67h-3.37zm-.68-5.4h.68v5.4h-.68zm-.67-1.46h.67v1.35h-.67zm-.68-.68h.68v.68h-.68zm-1.34-.67h1.34v.67h-1.34zm-2.03-.68h2.03v.68h-2.03zm-1.35.68h1.35v.67h-1.35zm-.67.67h.67v.68h-.67zm-.68.68h.68v4.04h-.68zm.68 4.16h.67v1.34h-.67zm.67 1.34h.68v1.35h-.68zm.68 1.35h.67v1.35h-.67zm.67 1.35h.68v.68h-.68zm.68.68h.67v.67h-.67zm.67.67h.68v.68h-.68zm.68.68h.67v.67h-.67zm.67.67h.67v.67h-.67zm2.7 2.7h.67v1.35h-.67zm-.68-.68h.68v.68h-.68zm-.67-.67h.67v.67h-.67zm-.68-.68h.68v.68h-.68zm2.7 3.38h.68v1.35h-.68zm.68 1.35h.67v1.34h-.67zm.67 1.34h.68v1.35h-.68zm.79 1.35h.67v5.4h-.67zm-.79 5.4h.68v1.35h-.68zm-.67 1.46h.67v.67h-.67zm-.68.67h.68v.68h-.68zm-.67.68h.67v.67h-.67zm-2.03-3.37h.68v.67h-.68zm-5.4 0h.68v.67h-.67zm.68.56h1.35v.67h-1.35zm1.35.79h2.03v.67h-2.03zm2.03-.8h1.34v.68h-1.34zm-4.73-2.01h.68v1.34h-.68zm-.67-5.4h.67v5.4h-.67zm-3.37-.67h3.37v.67h-3.37zm-.68.67h.68v5.4h-.68zm.68 5.4h.67v2.02h-.67zm.67 2.02h.68v1.35h-.68zm.68 1.46h.67v.67h-.67zm.67.67h.68v.68h-.68zm.68.68h.67v.67h-.67zm.67.67h1.35v.68h-1.35zm1.35.68h1.35v.67h-1.35zm4.72 0h1.35v.67h-1.35zm1.35-.68h1.35v.68h-1.35zm-4.72 1.35h3.37v.68h-3.37zm4.72-9.55h.67v4.04h-.67zm-.68-1.35h.68v1.35h-.68zm-.67-1.35h.67v1.35h-.67zm-.67-1.35h.67v1.35h-.67zm-.68-.67h.68v.67h-.68zm-.67-.68h.67v.68h-.67zm-.68-.67h.68v.67h-.68zm-.67-.68h.67v.68h-.67zm-.68-.67h.68v.67h-.68zm-.67-.68h.67v.68h-.67zm-.68-.67h.68v.67h-.68zm-.67-.67h.67v.67h-.67zm-.67-1.35h.67v1.35h-.67zm-.68-1.35h.68v1.35h-.68zm-.67-1.35h.67v1.35h-.67zm-.68-1.35h.68v1.35h-.68zm-.67-5.5h.67v5.39h-.67zm.67-1.36h.68v1.35h-.68zm.68-.67h.67v.67h-.67zm.67-.68h.68v.68h-.68zm.68-.67h.67v.67h-.67zm.67-.67h1.35v.67h-1.35zm1.35-.68h1.35v.68h-1.35zm-23.72 30.58h.68v3.37h-.68zm-2.7 3.37h2.7v.67h-2.7zm0-4.16h2.7v.67h-2.7zm-.67.79h.67v3.37h-.67zm-94.87-30.58h.67v4.05h-.67zm4.04 0h.68v4.05h-.68Zm6.75 0h.67v4.05h-.67zm4.04 0h.68v4.05h-.68Zm-4.72 4.05h.68v4.04h-.68zm-5.4 0h.68v4.04h-.67zm-4.04 0h.68v3.37h-.68zm8.77 4.16h.67v3.37h-.67zm-4.05 0h.68v3.37h-.68zm8.1-.68h.67v4.05h-.67zm-12.14 0h.67v4.05h-.67zm7.41 4.05h.68v4.05h-.68zm4.05 0h.68v4.05h-.68Zm-10.79 0h.67v4.05h-.67Zm4.05 0h.67v4.05h-.67zm2.02 4.05h.67v4.04h-.67zm-1.35 0h.68v4.04h-.68zm5.4 0h.67v4.04h-.67zm-9.45 0h.68v4.04h-.68zm4.73 4.04h.67v3.37h-.67zm4.04 0h.68v4.05h-.68zm-8.1 0h.68v4.05h-.67zm6.08 10.9h.67v4.05h-.67zm-4.05 0h.68v4.05h-.68zm4.72-3.48h.68v3.37h-.68zm-5.4 0h.68v3.37h-.67zm6.08-3.37h.67v3.37h-.67zm-6.75 0h.68v3.37h-.68Zm2.03 10.9h3.37v.68h-3.37zm-5.4-35.3h3.37v.68h-3.37zm10.8 0h3.36v.68h-3.37zm48.78 31.26h.67v3.37h-.67zm-11.47 3.37h11.58v.67h-11.58zm0-34.62h3.37v.67h-3.37zm3.37 31.25h8.1v-.8h-7.42v-29.78h-.68v29.79zm-4.04-30.58h.67v33.95h-.67zm-14.95 33.95h3.37v.67h-3.37zm6.07-15.63h-2.7v15.63h.67v-14.95h1.35v2.02h.68v-2.02zm2.13-4.04h1.35v.67h-1.35zm1.35-9.56h.68v9.56h-.68zm-1.35-.67h1.35v.67h-1.35zm-8.88-4.05h.68v33.95h-.68zm.68-.67h9.55v.67h-9.55zm9.55.67h1.35v.68h-1.35zm1.35.68h.67v.67h-.67zm.67.67h.68v.67h-.68zm.68.67h.67v.68h-.67zm.67.68h.68v1.35h-.68zm.68 1.35h.67v10.9h-.67zm-.68 10.9h.68v1.35h-.68zm-.67 1.35h.67v.67h-.67zm-.68.67h.68v.68h-.68zm-1.34.68h1.34v.67h-1.34zm-.68.67h.68v3.38h-.68zm.68 3.38h.67v2.02h-.67zm.67 2.02h.67v2.02h-.67zm.67 2.02h.68v2.03h-.68zm.68 2.03h.67v2.02h-.67zm-2.02 6.18h3.37v.67h-3.37zm3.37-2.03h.67v2.03h-.67zm-.68-2.13h.68v2.02h-.68zm-3.37 2.13h.68v2.03h-.68zm-.67-2.13h.67v2.02h-.67zm-.68-2.02h.68v2.02h-.68zm-.78-2.7h.67v2.7h-.67zm-.68-2.03h.68v2.03h-.68zm-.67-2.02h.67v2.02h-.67zm50.92-21.7h3.37v.68h-3.37zm-2.7 16.98h.67v2.02h-.67zm-3.48 1.35h.67v2.02h-.67zm-.68-2.02h.68v2.02h-.68zm-4.72-16.3h3.37v.67h-3.37zm-.67.67h.67v33.95h-.67zm4.72 13.6v-2.02h-.68v22.37h.68v-18.32h.67v-2.03zm6.85 8.77v2.02h.68v-24.39h-.68v20.35h-.67v2.02zm-1.35-4.05h.68v2.03h-.68zm1.35 15.63h4.05v.67h-4.05zm4.05-33.95h.67v33.95h-.67zm-4.72 31.92h.67v2.03h-.67zm-.68-2.13h.68v2.02h-.68zm-1.46-15.51h.68v2.02h-.68zm-.56-2.03h.68v2.03h-.68zm-.79-2.02h.68v2.02h-.68zm-.67-2.02h.67v2.02h-.67zm-.67-2.14h.67v2.02h-.67zm-.68-2.02h.68v2.02h-.68zm-.67-2.03h.67v2.03h-.67zm-.68-2.02h.68v2.02h-.68zm-3.37 33.95h3.37v.67h-3.37zm8.88-6.18h.67v2.02h-.67zm-.79-2.03h.68v2.03h-.68zm-.56-2.02h.68v2.02h-.68zm-.79-2.02h.68v2.02h-.68zm-.67-2.03h.67v2.03h-.67zm-47.44-15.62h4.16v-.68h-4.83v12.26h4.83v-.68H115zm67.79 25.74h1.34v.67h-1.34zm-.68-.56h.68v.67h-.68zm-.67-1.46h.67v1.34h-.67zm6.85 0h.68v1.34h-.68zm4.05.67h.67v1.35h-.67zm-14.95 0h.67v1.35h-.67zm.67 1.35h.68v1.35h-.68zm.68 1.46h.67v.67h-.67zm.67.67h.68v.68h-.68zm.68.68h.67v.67h-.67zm.67.67h1.35v.68h-1.35zm1.35.68h1.35v.67h-1.35zm1.35.67h3.37v.68h-3.37zm5.5-34.62h.68v27.77h-.67zm-11.57 21.7h3.37v.67h-3.37zm-.67.67h.67v6.07h-.67zm4.04 0h.68v5.4h-.68zm3.37 8.2h2.03v.68h-2.03zm2.14-.78h1.35v.67h-1.35zm1.35-.56h.67v.67h-.67zm5.4-29.23h.67v28.44H193zm-6.19 33.95h1.35v.67h-1.35zm1.46-.68h1.35v.68h-1.35zm1.35-.67h.68v.67h-.68Zm.68-.68h.67v.68h-.67zm.67-.67h.68v.67h-.68zm.68-1.46h.67v1.35h-.67zm-2.03-30.46H193v.67h-3.37Zm-90.82 30.46h1.35v.67H98.8zm-.68-.56h.68v.67h-.68zm-.67-1.46h.67v1.34h-.67zm6.74 0h.68v1.34h-.68zm4.05.67h.67v1.35h-.67zm-14.95 0h.67v1.35h-.67zm.67 1.35h.68v1.35h-.68zm.68 1.46h.67v.67h-.67zm.67.67H96v.68h-.68zm.68.68h.67v.67H96zm.78.67h1.35v.68h-1.35zm1.35.68h1.35v.67h-1.35zm1.35.67h3.37v.68h-3.37zm.68-4.04h2.02v.67h-2.02zm2.02-.8h1.35v.68h-1.35zm1.35-.55h.67v.67h-.67zm-.68 4.72h1.35v.67h-1.35zm1.35-.68h1.35v.68h-1.35zm1.35-.67h.68v.67h-.68zm.68-.68h.67v.68h-.67zm.67-.67h.67v.67h-.67zm.67-1.46h.68v1.35h-.68zm-5.4-25.74h1.36v.67h-1.35zm1.36.67h.67v.68h-.67zm.67.68h.68v1.35h-.68zm-6.74 0h.67v1.35h-.67zm-4.16-.68h.67v1.35h-.67zm14.95 0h.67v1.35h-.67zm-.68-1.35h.68v1.35h-.68zm-.67-.67h.67v.67h-.67zm-.67-.68h.67v.68h-.67zm-.68-.67h.68v.67h-.68zm-1.35-.67h1.35v.67h-1.35zm-1.35-.68h1.35v.68h-1.35zm-3.37-.67h3.37v.67h-3.37zm-2.02 23.04v-15.51h-.68v20.9h.68v-2.7zm11.46-10.8v16.87h.68v-22.37h-.68zm-4.04 0v16.2h.67v-20.91h-.67zm-4.72-8.2h2.02v.68h-2.02zm-1.35.68h1.35v.67H98.8zm-.68.67h.68v.68h-.68zm-4.83 17.65v-16.3h-.68v-2.02h-.67v3.48h.67v20.91h.68v-3.37zm4.83-22.37h1.35v.68h-1.35zm-1.35.68h1.35v.67h-1.35zm-.78.67h.67v.67H96zm-.68.67H96v.68h-.68zm-.67.68h.67v.67h-.67zm-.68.67h.68v1.35h-.68Zm50.25 26.42h1.35v.67h-1.35zm-.67-.56h.67v.67h-.67zm-.68-1.46h.68v1.34h-.68zm6.75 0h.67v1.34h-.67zm4.04.67h.68v1.35h-.68zm-14.95 0h.68v1.35h-.68zm.68 1.35h.67v1.35h-.67zm.67 1.46h.67v.67h-.67zm.67.67h.68v.68h-.68zm.8.68h.67v.67h-.68zm.67.67h1.35v.68h-1.35zm1.35.68h1.34v.67h-1.34zm1.34.67h3.38v.68h-3.38zm.68-4.04h2.02v.67h-2.02zm2.02-.8h1.35v.68h-1.35zm1.35-.55h.68v.67h-.68zm-.67 4.72h1.35v.67h-1.35zm1.35-.68h1.34v.68h-1.34zm1.34-.67h.68v.67h-.68zm.68-.68h.67v.68h-.67zm.67-.67h.68v.67h-.68zm.68-1.46h.67v1.35H153zm-5.4-25.74h1.35v.67h-1.35zm1.35.67h.68v.68h-.68zm.68.68h.67v1.35h-.67zm-6.75 0h.68v1.35h-.68zm-4.16-.68h.68v1.35h-.68zm14.95 0h.68v1.35h-.68zm-.67-1.35h.67v1.35H153zm-.68-.67h.68v.67h-.68zm-.67-.68h.67v.68h-.67zm-.68-.67h.68v.67h-.68zm-1.34-.67h1.34v.67h-1.34zm-1.35-.68h1.35v.68h-1.35zm-3.38-.67h3.38v.67h-3.38zm-2.02 23.04v-15.51h-.67v20.9h.67v-2.7zm11.47-10.8v16.87h.67v-22.37h-.67zm-4.05 0v16.2h.67v-20.91h-.67zm-4.72-8.2h2.02v.68h-2.02zm-1.35.68h1.35v.67h-1.35zm-.67.67h.67v.68h-.67zm-4.84 17.65v-16.3h-.67v22.37h.67v-3.37zm4.84-22.37h1.34v.68h-1.34zm-1.35.68h1.35v.67h-1.35zm-.68.67h.68v.67h-.68zm-.79.67h.68v.68h-.68zm-.67.68h.67v.67h-.67zm-.67.67h.67v1.35h-.67z"/>
  <path fill="#d5d5d5" d="M85.88 663.83v.67h-.67v-.67h-3.38v1.35h.68v3.37h.67v3.49h.68v4.04h3.37v-4.04h.67v-3.49h.68v-3.37h.67v-1.35zm25.07 0h3.37v11.58h-3.37zm45.4 0h3.38v11.58h-3.37zm-26.4 8.2v-8.2h-3.38v11.58h11.47v-3.37zm-5.4 3.38h-3.37v-2.03h-.68v-2.13h-.67v-2.02h-.68v-2.7h-.78v-2.03h-.68v-.67h3.49v1.35h.67v2.02h.67v2.03h.68v2.02h.67v2.13h.68zm43.39-11.58v2.02h-.68v-2.02h-3.37v1.35h.56v2.02h.79v2.03h.67v2.02h.68v2.13h.67v2.03h4.05v-11.58zm41.25 2.02v-1.35h-.67v-.67h-3.38v1.35h.68v1.35h.67v4.04h-.67v.8h-.68v.67h-1.34v.67h-2.03v-.67h-1.35v-.68h-.67v-.79h-.68v-1.34h-.67v-5.4h-3.37v5.4h.67v2.13h.68v1.35h.67v.67h.68v.68h.67v.67h1.35v.68h1.35v.67h3.37v-.67h1.35v-.68h1.35v-.67h.67v-.68h.68v-.67h.67v-1.35h.68v-5.5zm-35.86 6.19h2.7v3.37h-2.7zm16.3-8.21v5.4h-.78v1.34h-.68v.68h-.67v.79h-1.35v.67h-2.03v-.67h-1.34v-.8h-.68v-.67h-.67v-1.34h-.68v-5.74h-3.48v6.41h.78v1.35h.68v1.35h.67v.67h.68v.68h.67v.78h1.35v.68h1.35v.67h3.37v-.67h1.35v-.68h1.35v-.67h.67v-.79h.68v-.67h.67v-1.35h.79v-1.35h.67v-6.07h-3.48zm-84.08 0v5.4h-.67v1.46h-.68v.56h-.67v.79h-1.35v.67h-2.02v-.67H98.8v-.8h-.68v-.55h-.67v-1.46h-.68v-5.4H93.3v6.07h.67v1.35h.68v1.46h.67v.67H96v.68h.78v.67h1.35v.68h1.35v.67h3.37v-.67h1.35v-.68h1.35v-.67h.68v-.68h.67v-.67h.67v-1.46h.68v-1.35h.67v-6.07zm45.41 0v5.4h-.67v1.46h-.67v.56h-.68v.79h-1.35v.67h-2.02v-.67h-1.35v-.8h-.67v-.55h-.68v-1.46h-.67v-5.4h-3.49v6.07h.68v1.35h.67v1.46h.67v.67h.8v.68h.67v.67h1.35v.68h1.34v.67h3.38v-.67h1.35v-.68h1.34v-.67h.68v-.68h.67v-.67h.68v-1.46h.67v-1.35h.68v-6.07z"/>
  <path fill="#e0e0df" d="M85.2 663.83v-2.7h-.67v-.67h-3.37v.67h.67v2.7zm1.35-3.37v.67h-.67v2.7h3.37v-2.7h.68v-.67zm24.4 0h3.37v3.37h-3.37zm15.62 0h3.37v3.37h-3.37zm29.79 0h3.37v3.37h-3.37zm11.58 0h3.37v3.37h-3.37zm-46.76 3.37h-3.49v-1.35h-.67v-2.02h3.48v2.7h.68zm41.25-3.37h3.37v1.35h.79v2.02h-2.7v-.67h-.79v-2.03h-.67zm40.02 0v.67h.67v.68h.68v.67h.67v1.35h4.05v-.67h-.68v-1.35h-.67v-1.35zm-12.82 0H193v3.37h-3.37Zm-96.33 0h3.37v3.37H93.3zm12.25 0h3.37v3.37h-3.37zm33.16 0h3.37v3.37h-3.37zm12.25 0h3.38v3.37h-3.38z"/>
  <path fill="#eee" d="M189.63 658.43H193v2.03h-3.37Zm-84.08 0h3.37v2.03h-3.37zm-12.25 0h3.37v2.03H93.3zm57.66 0h3.38v2.03h-3.38zm-12.25 0h3.37v2.03h-3.37zm-57.55 0h3.37v2.03h-3.37zm5.4 0h3.37v2.03h-3.38zm40.01 0h3.37v2.03h-3.37zm29.79 0h3.37v2.03h-3.37zm11.58 0h3.37v2.03h-3.37zm-53.28 0h-3.71v2.03h3.37v-.68h2.7v.68h3.48v-.68h.68v-.67h1.34v-.68zm47.43 0h3.04v1.35h.67v.68h-3.37v-1.35h-.34zm38.33 0h4.72v.68h.68v.67h.67v.68h-4.72v-.68h-.67v-.67h-.68z"/>
  <path fill="#fff" d="M84.53 658.43v-1.34h-.67v-4.05h-.68v-3.37h-.67v-4.16h-.68v-4.05h-3.37v4.05h.68v3.48h.67v4.05h.67v4.05h.68v1.34zm4.72-16.97v4.05h-.67v4.16h-.68v3.37h-.67v4.05h-.68v1.34h3.38v-1.34h.67v-4.05h.68v-4.05h.67v-3.48h.67v-4.05zm34.62 4.05v-1.35h-.67v-.68h-.79v-.67h-.67v-.67h-1.35v-.68h-9.44v16.97h12.25v-.67h.67v-1.35h.68v-10.9zm-2.7 10.23h-.78v.67h-1.35v.68h-4.72v-12.26h4.72v.68h1.35v.78h.67v9.45zm5.4-14.28h3.37v16.97h-3.37zm41.37 0h3.37v16.97h-3.37zm-8.2 0v2.02h.67v2.03h.67v2.02h.68v2.14h.67v2.02h.67v2.02h.8v2.03h.55v2.02h.79v.67h-3.48v-1.34h-.68v-2.03h-.67v-2.02h-.68v5.4h-3.37v-16.98Zm44.73 16.97v-.67h-.67v-.67h-.68v-.68h-.67v-.67h-.68v-.68h-.67v-1.35h-.68v-1.35h-.67v-1.34h-.68v-4.16h.68v-.68h.67v-.67h1.35v-.68h2.03v.68h1.34v.67h.68v.68h.67v1.46h.68v5.4h3.48v-5.4h-.67v-2.14h-.79v-1.35h-.67v-.67h-.68v-.68h-.67v-.67h-1.35v-.67h-1.35v-.68h-3.37v.68h-1.35v.67h-1.35v.67h-.67v.68h-.68v.67h-.67v1.35h-.68v5.51h.68v1.35h.67v1.35h.68v1.35h.67v1.35h.67v.67h.68v.67h.67zm-14.84-16.97H193v16.97h-3.37Zm-92.85 16.97v-10.11h.68v-1.46h.67v-.68h.68v-.67h1.35v-.68h2.02v.68h1.35v.67h.67v.68h.68v1.46h.67v10.11h3.37v-10.9h-.67v-1.35h-.68v-1.35h-.67v-.67h-.67v-.68h-.68v-.67h-1.35v-.67h-1.35v-.68h-3.37v.68h-1.35v.67h-1.35v.67H96v.68h-.68v.67h-.67v1.35h-.68v1.35h-.67v10.9zm45.42 0v-10.11h.67v-1.46h.68v-.68h.67v-.67h1.35v-.68h2.02v.68h1.35v.67h.68v.68h.67v1.46h.67v10.11h3.38v-10.9h-.68v-1.35H153v-1.35h-.68v-.67h-.67v-.68h-.68v-.67h-1.34v-.67h-1.35v-.68h-3.38v.68h-1.34v.67h-1.35v.67h-.68v.68h-.79v.67h-.67v1.35h-.67v1.35h-.68v10.9z"/>
</svg>
